<svg xmlns="http://www.w3.org/2000/svg" width="512" height="512" viewBox="0 0 512 512" version="1.1">
	<path d="M 301.500 28.712 C 296.560 30.159, 293.224 30.874, 281.500 33 C 278.200 33.598, 273.250 34.504, 270.500 35.012 C 267.750 35.520, 262.137 36.438, 258.027 37.052 C 253.917 37.666, 249.784 38.581, 248.843 39.084 C 247.901 39.588, 245.629 40, 243.793 40 C 236.974 40, 214.483 50.267, 198 60.904 C 188.334 67.141, 184.010 71.098, 178.987 78.303 C 174.815 84.288, 171.475 86.203, 174.914 80.639 C 176.937 77.366, 176.987 77, 175.415 77 C 174.454 77, 172.955 77.671, 172.084 78.490 C 171.213 79.310, 165.775 83.997, 160 88.905 C 143.515 102.917, 132.849 113.625, 123.223 125.826 C 117.883 132.595, 116.303 136.041, 115.120 143.500 C 114.001 150.549, 112.437 155, 111.080 155 C 109.622 155, 102.312 163.110, 96.895 170.739 C 94.254 174.457, 91.678 177.984, 91.171 178.575 C 88.278 181.946, 82.635 190.465, 78.966 197 C 76.651 201.125, 74.174 205.175, 73.464 206 C 70.772 209.126, 55.760 240.037, 50.881 252.500 C 46.051 264.837, 40 283.061, 40 285.268 C 40 285.830, 38.343 289.712, 36.317 293.895 C 33.141 300.452, 32.573 302.712, 32.192 310.296 C 31.773 318.654, 33.217 336.865, 34.984 345.500 C 35.434 347.700, 36.076 355.125, 36.409 362 C 36.978 373.725, 36.915 374.360, 35.386 372.250 C 31.508 366.897, 30.686 369.282, 29.089 390.500 C 27.958 405.526, 27.866 406.015, 21.355 431.748 C 15.934 453.174, 14.054 466.479, 14.016 483.677 C 14.001 490.236, 14.225 491.032, 16.616 492.912 C 20.147 495.690, 21.619 494.683, 26.500 486.148 C 36.026 469.491, 42.311 461.497, 58.404 445.565 C 73.461 430.659, 75.081 429.360, 83.500 425.430 C 94.021 420.519, 111.067 416.263, 134.840 412.612 C 150.218 410.250, 158.155 407.823, 158.097 405.500 C 158.084 404.950, 154.681 404.093, 150.536 403.596 C 143.060 402.698, 140.926 401.475, 145.250 400.564 C 149.153 399.743, 171 394.908, 184 391.989 C 199.433 388.524, 207.790 387, 211.352 387 C 220.296 387, 243.957 380.049, 256.997 373.591 C 268.544 367.872, 272.514 365.233, 279.478 358.647 C 284.215 354.169, 285.172 352.772, 284.183 351.783 C 282.026 349.626, 272.431 350.169, 259.358 353.187 C 252.407 354.791, 245.095 355.957, 243.110 355.777 L 239.500 355.450 243.500 354.348 C 258.441 350.228, 271.723 347.736, 283.275 346.883 C 315.392 344.511, 335.668 339.887, 350.263 331.606 C 355.970 328.368, 357.563 326.956, 357.799 324.926 C 358.058 322.705, 357.538 322.168, 353.999 321 C 347.318 318.795, 348.343 318, 357.869 318 C 376.195 318, 389.106 314.606, 404.500 305.742 C 407.800 303.841, 413.732 300.432, 417.681 298.165 C 439.856 285.437, 458.409 270.009, 455.290 266.890 C 454.765 266.365, 450.772 265.579, 446.418 265.144 C 440.111 264.515, 439.110 264.210, 441.500 263.647 C 462.554 258.688, 478.854 251.700, 484.091 245.391 C 484.850 244.476, 487.052 242.717, 488.985 241.480 C 491.289 240.007, 493.665 236.974, 495.883 232.675 C 498.775 227.067, 499.196 225.387, 498.782 221.083 C 498.213 215.158, 494.422 208.835, 489.728 205.981 C 487.972 204.913, 484.053 203.548, 481.018 202.947 C 472.523 201.265, 461.495 198.257, 458.764 196.877 C 457.809 196.395, 455.923 196, 454.573 196 C 453.223 196, 451.873 195.604, 451.574 195.119 C 451.274 194.635, 450.010 194.006, 448.765 193.722 C 446.348 193.171, 433.756 189.731, 425.500 187.368 C 422.750 186.581, 416.675 185.377, 412 184.694 C 397.440 182.565, 358.361 184.990, 356.412 188.143 C 356.120 188.614, 355.106 189, 354.157 189 C 353.209 189, 349.988 190.575, 347 192.500 C 340.442 196.725, 338.681 196.986, 342.313 193.195 C 343.791 191.653, 345 190.038, 345 189.607 C 345 187.051, 307.057 197.044, 288.301 204.540 C 269.956 211.871, 265.242 214.814, 261.932 221 C 258.945 226.580, 254.198 231.198, 252.125 230.540 C 251.133 230.225, 248.562 230.685, 246.411 231.561 C 237.295 235.276, 212.275 248.530, 202.926 254.597 C 197.368 258.203, 192.657 260.991, 192.457 260.791 C 192.258 260.591, 192.852 258.320, 193.778 255.745 C 195.880 249.900, 194.961 248.620, 189.705 250.071 C 186.639 250.918, 173.835 259.493, 172 261.930 C 170.611 263.774, 159.174 271.816, 157 272.478 C 154.777 273.154, 154.888 272.903, 158 270.214 C 167.444 262.054, 182.489 250.080, 184.826 248.865 C 191.561 245.364, 206.052 236.335, 211.132 232.476 C 214.229 230.122, 217.752 227.668, 218.961 227.021 C 227.044 222.695, 245.711 202.261, 248.213 195 C 248.497 194.175, 248.305 192.675, 247.785 191.667 C 246.977 190.098, 246.098 189.934, 241.670 190.530 C 235.662 191.339, 235.907 190.787, 243.183 187.125 C 263.753 176.770, 271.391 169.680, 285.189 148.137 C 286.117 146.687, 287.242 145.050, 287.689 144.500 C 296.576 133.546, 311.803 102.255, 310.235 98.170 C 309.587 96.481, 304.895 97.266, 299.202 100.016 C 294.657 102.212, 294 102.364, 294 101.216 C 294 100.784, 295.253 99.691, 296.785 98.786 C 304.378 94.301, 321.360 75.008, 324.732 67.036 C 325.555 65.091, 327.077 61.575, 328.114 59.223 C 330.376 54.094, 330.642 43.441, 328.627 38.718 C 324.367 28.736, 314.212 24.990, 301.500 28.712 M 150.133 104.665 L 137.766 117.093 138.860 121.297 C 139.462 123.608, 140.900 131.800, 142.056 139.500 C 143.212 147.200, 144.808 155.300, 145.602 157.500 C 146.397 159.700, 147.736 165.100, 148.579 169.500 C 151.455 184.522, 150.858 183.189, 154.371 182.428 L 157.500 181.750 155.589 183.881 C 154.539 185.053, 153.987 186.320, 154.362 186.696 C 154.738 187.072, 155.736 186.394, 156.580 185.190 C 158.595 182.313, 160.227 182.360, 158.665 185.250 C 154.639 192.697, 149.029 199.968, 139.147 210.545 C 136.041 213.869, 131.074 219.382, 128.110 222.795 C 122.626 229.108, 121 230.183, 121 227.500 C 121 226.675, 120.319 226, 119.486 226 C 118.310 226, 118.118 225.274, 118.626 222.750 C 119.809 216.869, 119.114 173.076, 117.799 170.685 C 116.724 168.731, 116.456 169.292, 115.265 176 C 111.619 196.520, 109.345 202.046, 106.824 196.513 C 106.019 194.746, 105.984 189.812, 106.697 178.782 C 107.240 170.377, 107.587 163.368, 107.466 163.207 C 107.261 162.933, 104.965 166.378, 100.637 173.454 C 99.612 175.129, 98.435 176.725, 98.020 177 C 97.605 177.275, 95.582 180.142, 93.525 183.371 C 90.199 188.590, 89.861 189.702, 90.484 193.371 C 91.524 199.500, 92.101 264.161, 91.127 265.419 C 90.667 266.013, 89.821 267.850, 89.247 269.500 C 88.674 271.150, 87.883 273.293, 87.491 274.261 C 86.936 275.631, 87.151 275.879, 88.458 275.378 C 90.024 274.777, 90.028 274.996, 88.518 278.616 C 87.627 280.752, 86.144 283.625, 85.223 285 C 82.292 289.378, 79.963 293.446, 79.356 295.250 C 79.032 296.212, 78.421 297, 77.999 297 C 77.576 297, 76.922 299.468, 76.545 302.484 C 75.744 308.895, 74.615 310.015, 71.998 306.997 C 70.470 305.236, 70.326 304.451, 71.256 302.961 C 72.177 301.486, 72.066 300.730, 70.703 299.225 C 69.764 298.187, 69.334 296.999, 69.748 296.586 C 70.803 295.531, 70.901 279.057, 69.857 278.412 C 69.386 278.120, 69 276.614, 69 275.063 C 69 273.513, 68.325 271.685, 67.500 271 C 66.675 270.315, 65.993 268.573, 65.985 267.128 C 65.969 264.388, 63.872 257.539, 62.685 256.352 C 62.308 255.975, 62 254.653, 62 253.415 C 62 243.857, 57.863 249.794, 51.545 268.422 C 46.507 283.272, 46.451 284.137, 49.938 293 C 52.769 300.192, 54.466 305.365, 56.011 311.500 C 56.703 314.250, 57.925 317.560, 58.727 318.855 C 59.709 320.443, 59.965 322.376, 59.511 324.794 C 58.912 327.985, 59.012 328.235, 60.419 327.067 C 61.289 326.346, 62 325.933, 62 326.151 C 62 326.645, 52.144 345.183, 49.188 350.250 C 47.985 352.313, 46.178 355.463, 45.173 357.250 C 44.102 359.155, 42.832 364.784, 42.104 370.848 C 41.421 376.540, 40.620 381.828, 40.324 382.598 C 39.527 384.675, 36.441 384.298, 34.872 381.932 C 33.654 380.096, 33.513 380.740, 33.612 387.679 C 33.674 391.976, 33.308 396.686, 32.800 398.145 C 32.291 399.604, 32.029 402.755, 32.218 405.149 C 32.548 409.344, 32.589 409.392, 33.358 406.500 C 34.183 403.397, 34.734 401.938, 37.321 396 C 38.160 394.075, 39.500 390.700, 40.299 388.500 C 44.205 377.740, 45.561 374.473, 46.250 374.167 C 46.663 373.983, 47 373.259, 47 372.557 C 47 371.342, 48.882 367.306, 56.820 351.500 C 58.753 347.650, 60.640 343.825, 61.011 343 C 61.383 342.175, 62.288 340.375, 63.021 339 C 63.755 337.625, 64.837 335.594, 65.427 334.486 C 66.017 333.378, 67.513 331.059, 68.750 329.332 C 69.988 327.604, 71 325.736, 71 325.179 C 71 324.622, 71.338 324.017, 71.750 323.833 C 72.660 323.429, 79 313.176, 79 312.108 C 79 311.690, 80.125 310.292, 81.500 309 C 82.875 307.708, 84 305.844, 84 304.856 C 84 303.172, 84.704 301.731, 90.157 292.250 C 91.343 290.188, 92.813 287.600, 93.424 286.500 C 96.912 280.218, 108.139 263.575, 109.164 263.167 C 109.624 262.983, 110 262.281, 110 261.605 C 110 260.930, 110.788 259.480, 111.750 258.384 C 112.713 257.288, 113.950 255.671, 114.500 254.792 C 116.240 252.011, 128.424 234.997, 130.250 232.800 C 131.213 231.642, 132.001 230.425, 132.001 230.097 C 132.002 229.769, 133.014 228.323, 134.251 226.883 C 135.488 225.444, 137.625 222.782, 139 220.967 C 140.375 219.152, 142.426 216.729, 143.559 215.583 C 144.691 214.437, 146.925 211.700, 148.522 209.500 C 150.120 207.300, 151.894 205, 152.464 204.389 C 153.034 203.778, 154.850 201.536, 156.500 199.407 C 159.269 195.834, 167.242 186.231, 180.916 170 C 185.889 164.097, 191.482 157.803, 194.750 154.432 C 195.438 153.723, 196 152.906, 196 152.617 C 196 152.328, 198.523 149.483, 201.606 146.295 C 208.495 139.173, 214 132.578, 214 131.447 C 214 130.981, 213.460 131.140, 212.800 131.800 C 212.140 132.460, 210.795 133, 209.811 133 C 207.747 133, 205.488 134.717, 199.285 141 C 177.840 162.722, 177.504 163.026, 177.180 161.001 C 177.005 159.900, 176.162 159, 175.308 159 C 174.137 159, 174.024 158.676, 174.848 157.684 C 176.319 155.910, 176.399 151.629, 175.084 145 C 173.960 139.334, 173.765 138.302, 172.534 131.500 C 171.742 127.124, 171.026 124.538, 168.104 115.500 C 167.037 112.200, 165.608 106.125, 164.928 102 C 164.248 97.875, 163.423 93.991, 163.096 93.368 C 162.752 92.714, 157.277 97.485, 150.133 104.665 M 211.532 94.219 L 208.814 96.556 210.502 102.028 C 211.430 105.038, 212.358 108.063, 212.563 108.750 C 213.200 110.879, 215.966 110.140, 220.049 106.750 C 223.274 104.073, 223.967 102.861, 223.982 99.872 C 224.001 96.122, 222.936 94.670, 219.500 93.758 C 218.400 93.466, 216.769 92.924, 215.875 92.554 C 214.864 92.136, 213.221 92.766, 211.532 94.219 M 264.459 138.067 C 264.096 138.653, 264.005 139.339, 264.257 139.590 C 264.954 140.288, 268 138.907, 268 137.893 C 268 136.641, 265.257 136.776, 264.459 138.067 M 171.564 161.707 C 171.022 163.132, 171.136 163.247, 172.124 162.267 C 172.808 161.588, 173.115 160.781, 172.807 160.474 C 172.499 160.166, 171.940 160.721, 171.564 161.707 M 174.500 165 C 174.160 165.550, 174.359 166, 174.941 166 C 175.523 166, 176 165.550, 176 165 C 176 164.450, 175.802 164, 175.559 164 C 175.316 164, 174.840 164.450, 174.500 165 M 200.550 168.866 C 198.323 169.617, 196.275 170.567, 196 170.976 C 195.026 172.426, 188.927 175.073, 187.950 174.469 C 187.037 173.905, 183.448 176.308, 178.500 180.799 C 171.527 187.126, 149.346 216, 151.459 216 C 153.279 216, 155.886 213.159, 161.056 205.542 C 167.257 196.405, 171.944 191.377, 170.323 195.601 C 169.763 197.060, 169.988 197.057, 172.854 195.575 C 174.584 194.681, 176 194.301, 176 194.731 C 176 195.953, 182.648 197.689, 192.684 199.086 C 200.218 200.134, 202.643 200.128, 206.184 199.049 C 211.820 197.332, 247.849 179.747, 255.241 175.105 C 261.273 171.318, 262.264 170, 259.083 170 C 258.029 170, 257.017 169.576, 256.833 169.058 C 256.640 168.513, 245.572 167.987, 230.550 167.808 C 210.594 167.571, 203.665 167.815, 200.550 168.866 M 239.750 195.689 C 238.787 195.941, 238 196.564, 238 197.073 C 238 198.416, 239.337 198.212, 241.559 196.532 C 243.504 195.061, 243.020 194.835, 239.750 195.689 M 321.746 198.587 C 321.423 198.911, 319.660 199.550, 317.829 200.009 C 314.340 200.883, 299.461 206.216, 294.761 208.277 C 293.255 208.938, 292.102 209.933, 292.200 210.489 C 292.549 212.478, 290.496 220.288, 287.992 226.500 C 287.548 227.600, 286.624 230.750, 285.939 233.500 C 285.253 236.250, 284.424 238.950, 284.096 239.500 C 283.769 240.050, 283.011 243.200, 282.413 246.500 C 281.814 249.800, 280.351 256.072, 279.162 260.438 C 276.615 269.789, 276.426 273.843, 278.500 274.638 C 280.552 275.426, 280.393 276.982, 278.250 277.079 C 277.150 277.129, 276.977 277.349, 277.784 277.673 C 278.490 277.957, 279.727 277.641, 280.534 276.972 C 281.340 276.303, 282 276.190, 282 276.723 C 282 277.877, 278.704 281, 277.486 281 C 277.014 281, 275.700 281.824, 274.564 282.830 C 273.429 283.837, 267.563 286.596, 261.529 288.963 C 255.495 291.329, 247.170 294.712, 243.029 296.481 C 238.888 298.249, 233.909 299.992, 231.964 300.353 C 228.490 300.999, 228.429 300.953, 228.541 297.755 C 228.641 294.907, 230.408 290.495, 232.049 289 C 232.585 288.512, 244.089 264.940, 248.155 256 C 249.281 253.525, 250.606 250.719, 251.101 249.764 C 252.046 247.938, 252.320 245, 251.545 245 C 250.740 245, 246 250.063, 246 250.923 C 246 251.381, 245.292 252.343, 244.427 253.061 C 243.562 253.779, 242.013 255.971, 240.986 257.933 C 238.631 262.430, 233.354 268, 231.449 268 C 229.525 268, 229.560 263.583, 231.500 261.643 C 232.325 260.818, 233 259.496, 233 258.706 C 233 257.916, 233.900 256.126, 235 254.727 C 236.100 253.329, 237 251.948, 237 251.659 C 237 251.042, 242.487 241.722, 245.189 237.750 C 246.966 235.139, 246.481 233.944, 244.450 235.928 C 243.551 236.805, 235.154 241.732, 226.626 246.386 C 221.616 249.120, 216 254.431, 216 256.435 C 216 257.924, 211.906 266.910, 200.896 289.584 C 198.203 295.130, 196 300.155, 196 300.751 C 196 301.346, 195.601 301.983, 195.113 302.167 C 194.625 302.350, 192.433 306.325, 190.242 311 C 186.010 320.030, 182.374 324.990, 179.968 325.015 C 178.867 325.027, 178.810 325.228, 179.742 325.820 C 181.179 326.732, 175.449 332.698, 170.500 335.444 C 164.796 338.609, 159.503 341.967, 160.192 341.984 C 161.642 342.018, 151.934 351, 150.447 351 C 149.586 351, 149.160 350.550, 149.500 350 C 149.840 349.450, 149.684 349, 149.153 349 C 147.862 349, 148.873 345.351, 150.549 343.960 C 151.281 343.351, 151.617 342.166, 151.295 341.326 C 150.972 340.486, 151.138 339.506, 151.664 339.149 C 153.232 338.083, 158 328.891, 158 326.933 C 158 325.935, 158.450 324.840, 159 324.500 C 159.550 324.160, 160 322.334, 160 320.441 C 160 318.548, 160.338 317, 160.750 317 C 161.478 317, 161.936 313.146, 162.053 306.025 C 162.085 304.113, 162.635 302.225, 163.276 301.829 C 163.918 301.433, 164.151 300.818, 163.795 300.462 C 163.439 300.106, 159.671 302.781, 155.421 306.407 C 151.172 310.033, 147.088 313, 146.347 313 C 145.606 313, 145 313.367, 145 313.816 C 145 314.265, 143.250 315.615, 141.111 316.817 C 136.866 319.203, 136.630 319.861, 135.463 332.500 C 135.108 336.350, 134.183 341.719, 133.409 344.432 C 131.666 350.531, 131.607 355.204, 133.250 356.859 C 134.252 357.869, 134.153 357.986, 132.750 357.452 C 131.533 356.989, 131 357.275, 131 358.393 C 131 359.277, 130.550 360, 130 360 C 129.450 360, 129 360.436, 129 360.969 C 129 361.501, 129.787 361.660, 130.750 361.321 C 131.892 360.919, 132.153 361.042, 131.500 361.676 C 129.541 363.576, 115.457 373.718, 113 374.997 C 111.625 375.713, 110.275 376.619, 110 377.010 C 109.725 377.401, 108.150 378.416, 106.500 379.265 C 102.061 381.550, 99.807 383.839, 95.442 390.500 C 93.279 393.800, 90.953 397.175, 90.274 398 C 89.594 398.825, 88.420 400.361, 87.664 401.412 C 85.814 403.987, 83 402.816, 83 399.472 C 83 398, 82.568 397.149, 82 397.500 C 81.450 397.840, 81 398.807, 81 399.650 C 81 400.493, 79.200 403.748, 77 406.884 C 74.800 410.021, 73 412.914, 73 413.315 C 73 414.200, 68.358 421.557, 65.626 425 C 64.535 426.375, 66.760 424.331, 70.571 420.457 C 74.382 416.583, 78.541 412.695, 79.814 411.818 C 81.086 410.941, 84.478 408.035, 87.350 405.361 C 90.223 402.688, 94.807 398.707, 97.537 396.515 C 100.267 394.323, 103.400 391.686, 104.500 390.655 C 108.209 387.177, 139.175 365.081, 140.406 365.035 C 140.904 365.016, 142.704 363.963, 144.406 362.695 C 148.186 359.879, 156.519 354.939, 160.250 353.303 C 161.762 352.639, 163 351.674, 163 351.157 C 163 350.640, 168.063 346.951, 174.250 342.959 C 180.438 338.967, 187.490 334.418, 189.921 332.850 C 192.353 331.283, 194.941 330, 195.671 330 C 196.402 330, 197 329.660, 197 329.244 C 197 328.828, 198.458 327.843, 200.241 327.054 C 202.023 326.265, 206.186 324.083, 209.491 322.204 C 212.796 320.326, 220.675 316.071, 227 312.749 C 233.325 309.427, 240.428 305.649, 242.785 304.354 C 245.142 303.059, 247.730 302, 248.535 302 C 249.341 302, 250 301.550, 250 301 C 250 300.450, 250.681 300, 251.514 300 C 252.346 300, 253.809 299.574, 254.764 299.053 C 255.719 298.533, 261 296.009, 266.500 293.444 C 272 290.880, 279.151 287.481, 282.390 285.891 C 285.630 284.301, 288.735 283, 289.291 283 C 289.846 283, 292.821 281.828, 295.900 280.395 C 298.980 278.963, 302.400 277.432, 303.500 276.995 C 304.600 276.557, 307.633 275.254, 310.239 274.100 C 312.846 272.945, 315.233 272, 315.544 272 C 316.123 272, 323.200 268.920, 328.404 266.404 C 330.001 265.632, 332.138 265, 333.154 265 C 334.169 265, 335 264.550, 335 264 C 335 263.450, 335.681 263, 336.514 263 C 337.346 263, 338.921 262.550, 340.014 262 C 341.106 261.450, 342.894 260.550, 343.986 260 C 345.079 259.450, 346.879 259, 347.986 259 C 349.094 259, 350 258.581, 350 258.070 C 350 257.558, 351.012 256.944, 352.250 256.706 C 354.139 256.342, 354.049 256.251, 351.691 256.136 C 350.146 256.061, 349.105 255.639, 349.377 255.199 C 350.330 253.657, 336.082 256.754, 332.500 258.867 C 330.512 260.040, 328.005 261, 326.929 261 C 325.853 261, 324.191 261.424, 323.236 261.943 C 322.281 262.462, 318.800 263.746, 315.500 264.796 C 312.200 265.847, 308.712 267.045, 307.750 267.460 C 306.722 267.903, 306 267.785, 306 267.174 C 306 266.603, 306.978 265.824, 308.173 265.445 L 310.346 264.755 307.923 263.450 C 305.596 262.196, 305.579 262.115, 307.500 261.388 C 310.092 260.408, 312.334 257.280, 313.149 253.505 C 313.506 251.852, 315.003 246, 316.476 240.500 C 317.949 235, 319.977 226.450, 320.982 221.500 C 321.987 216.550, 323.527 209.350, 324.404 205.500 C 325.282 201.651, 326 198.388, 326 198.250 C 326 197.732, 322.309 198.025, 321.746 198.587 M 216.402 217.394 C 213.597 218.699, 210.999 220.559, 210.628 221.527 C 209.852 223.548, 210.763 224.975, 211.804 223.371 C 212.187 222.782, 213.597 221.721, 214.937 221.014 C 216.277 220.308, 217.852 219.325, 218.437 218.831 C 219.022 218.336, 220.400 217.286, 221.500 216.498 C 224.547 214.313, 222.091 214.744, 216.402 217.394 M 366.286 222.750 C 365.624 224.262, 364.952 227.975, 364.792 231 C 364.528 235.973, 364.706 236.529, 366.648 236.806 C 369.958 237.278, 376.324 233.810, 377.800 230.732 C 379.548 227.085, 378.730 224.977, 374.510 222.250 C 369.913 219.280, 367.746 219.411, 366.286 222.750 M 143.081 224.772 C 141.386 226.392, 140 228.030, 140 228.412 C 140 228.795, 138.652 230.547, 137.005 232.304 C 135.357 234.062, 134.007 235.805, 134.005 236.179 C 134.002 236.552, 133.413 237.452, 132.695 238.179 C 131.977 238.905, 129.390 242.369, 126.945 245.876 C 119.771 256.168, 119.573 256.439, 118.258 257.821 C 117.566 258.548, 117 259.529, 117 260 C 117 260.471, 116.427 261.452, 115.728 262.179 C 115.028 262.905, 112.692 266.200, 110.536 269.500 C 108.380 272.800, 106.253 275.650, 105.808 275.833 C 105.364 276.017, 105 276.734, 105 277.428 C 105 278.122, 104.100 279.505, 103 280.500 C 101.900 281.495, 101 282.845, 101 283.500 C 101 284.155, 100.100 285.505, 99 286.500 C 97.900 287.495, 97 289.050, 97 289.955 C 97 290.860, 96.460 292.140, 95.800 292.800 C 95.133 293.467, 95.044 294, 95.600 294 C 96.150 294, 97.152 293.448, 97.826 292.774 C 98.542 292.058, 102.271 291.464, 106.776 291.346 C 111.024 291.235, 116.525 290.673, 119 290.097 C 121.475 289.520, 124.871 289.038, 126.547 289.024 C 128.924 289.005, 131.151 287.517, 136.686 282.250 C 140.587 278.538, 147.032 272.800, 151.008 269.500 C 154.984 266.200, 159.046 262.825, 160.035 262 C 161.025 261.175, 164.167 258.700, 167.018 256.500 C 169.869 254.300, 173.844 251.220, 175.851 249.655 L 179.500 246.810 174.500 247.496 C 171.750 247.874, 168.150 248.573, 166.500 249.050 C 164.850 249.527, 158.775 250.949, 153 252.209 C 142.647 254.468, 142.418 254.581, 136.613 260.250 C 133.375 263.413, 130.450 266.038, 130.113 266.083 C 129.776 266.129, 128.600 266.327, 127.500 266.524 C 121.605 267.577, 121.646 267.592, 120.761 263.956 C 119.959 260.660, 120.340 259.749, 126.191 250.956 C 129.651 245.755, 134.648 239.290, 137.294 236.589 C 142.230 231.549, 147.666 223.333, 146.702 222.369 C 146.405 222.072, 144.775 223.153, 143.081 224.772 M 65.693 240.750 C 66.005 242.813, 66.713 244.950, 67.266 245.500 C 67.940 246.170, 68.067 245.674, 67.650 244 C 67.307 242.625, 67.021 240.488, 67.014 239.250 C 67.006 238.012, 66.578 237, 66.063 237 C 65.546 237, 65.380 238.681, 65.693 240.750 M 185.957 255.833 C 185.108 256.750, 183.128 258.400, 181.557 259.500 C 179.985 260.600, 174.155 265.115, 168.600 269.533 C 163.045 273.952, 155.800 279.325, 152.500 281.475 C 149.200 283.625, 146.350 285.747, 146.167 286.192 C 145.983 286.636, 145.196 287, 144.417 287 C 143.637 287, 143 287.492, 143 288.093 C 143 289.754, 155.975 288.303, 161.500 286.024 C 169.927 282.548, 173.749 280.410, 176.173 277.815 C 179.222 274.551, 180.870 271.542, 188.812 254.750 C 189.450 253.402, 187.536 254.128, 185.957 255.833 M 356 255 C 354.667 255.862, 354.667 255.969, 356 255.969 C 356.825 255.969, 358.175 255.533, 359 255 C 360.333 254.138, 360.333 254.031, 359 254.031 C 358.175 254.031, 356.825 254.467, 356 255 M 302.500 282.398 C 297.572 284.735, 293.616 286.482, 286.250 289.574 C 278.136 292.980, 275.168 294.342, 270.250 296.916 C 269.288 297.420, 266.813 298.566, 264.750 299.463 C 262.688 300.360, 261 301.531, 261 302.066 C 261 303.716, 266.009 301.924, 277 296.343 C 282.775 293.410, 287.837 291.008, 288.250 291.005 C 288.663 291.002, 289 291.702, 289 292.559 C 289 293.416, 289.427 293.854, 289.950 293.531 C 290.472 293.208, 291.892 294.288, 293.106 295.930 C 295.487 299.149, 306.713 307.107, 314 310.739 C 318.335 312.899, 319.516 312.982, 346.136 312.991 C 367.352 312.998, 374.374 312.687, 376.365 311.655 L 378.958 310.309 376.706 308.194 C 375.468 307.031, 366.590 302.105, 356.977 297.249 C 347.365 292.393, 337.473 287.222, 334.995 285.758 C 331.768 283.852, 328.930 283.049, 324.995 282.928 C 313.680 282.579, 306.999 281.810, 307.550 280.919 C 308.328 279.661, 308.177 279.705, 302.500 282.398 M 92.079 303.583 C 92.127 304.748, 92.364 304.985, 92.683 304.188 C 92.972 303.466, 92.936 302.603, 92.604 302.271 C 92.272 301.939, 92.036 302.529, 92.079 303.583 M 87.174 306.314 C 84.059 309.631, 84.493 310.434, 88 307.842 C 90.908 305.692, 91.865 304, 90.174 304 C 89.720 304, 88.370 305.042, 87.174 306.314 M 246.500 308.461 C 243.750 309.748, 240.037 311.405, 238.250 312.144 C 236.463 312.884, 235 313.828, 235 314.244 C 235 314.660, 234.190 315, 233.200 315 C 232.210 315, 230.962 315.438, 230.427 315.973 C 229.891 316.509, 224.289 319.608, 217.977 322.860 C 211.665 326.112, 203.575 330.426, 200 332.446 C 196.425 334.465, 192.713 336.369, 191.750 336.676 C 190.787 336.982, 190 337.631, 190 338.117 C 190 338.602, 189.325 339, 188.500 339 C 187.675 339, 186.995 339.337, 186.989 339.750 C 186.982 340.163, 185.190 341.356, 183.005 342.403 C 180.821 343.449, 178.281 345.137, 177.362 346.153 C 175.860 347.812, 175.852 348, 177.286 348 C 178.164 348, 179.160 347.550, 179.500 347 C 180.454 345.456, 182 345.817, 182 347.583 C 182 348.454, 182.563 348.968, 183.250 348.726 C 183.938 348.484, 185.625 349.042, 187 349.968 C 189.770 351.833, 192.711 352.972, 201.248 355.490 C 204.410 356.422, 207.237 357.574, 207.530 358.049 C 208.112 358.990, 209.650 358.614, 215 356.220 C 216.925 355.358, 220.300 354.257, 222.500 353.772 C 231.202 351.855, 234.663 351.070, 238.500 350.145 C 242.375 349.210, 253.998 346.710, 262.802 344.917 C 265.169 344.435, 267.862 343.617, 268.788 343.099 C 270.201 342.308, 269.992 342.053, 267.486 341.509 C 265.844 341.153, 263.466 340.443, 262.203 339.931 C 260.940 339.419, 258.892 339, 257.653 339 C 256.414 339, 254.972 338.600, 254.450 338.111 C 253.548 337.267, 245.611 335.453, 238 334.351 C 235.699 334.018, 232.171 334.691, 227.700 336.316 C 222.081 338.359, 220.343 338.607, 217.700 337.743 C 215.940 337.167, 213.938 336.554, 213.250 336.380 C 211.168 335.852, 211.797 330.267, 214.189 328.039 C 215.392 326.918, 216.826 326, 217.374 326 C 217.922 326, 219.300 325.137, 220.436 324.082 C 223.278 321.442, 236.053 315.014, 238.500 314.992 C 240.864 314.971, 251.320 309.823, 253.572 307.571 C 255 306.143, 254.977 306.006, 253.321 306.061 C 252.320 306.094, 249.250 307.174, 246.500 308.461 M 344.500 325 C 344.840 325.550, 346.640 326, 348.500 326 C 350.360 326, 352.160 325.550, 352.500 325 C 352.878 324.388, 351.324 324, 348.500 324 C 345.676 324, 344.122 324.388, 344.500 325 M 100.450 326.831 C 99.184 327.939, 91.815 330, 89.120 330 C 85.707 330, 80 333.718, 80 335.942 C 80 336.650, 81.216 336.519, 83.500 335.564 C 86.953 334.122, 88.006 334.594, 85.941 336.659 C 85.195 337.405, 85.712 337.747, 87.691 337.812 C 89.236 337.864, 92.750 338.138, 95.500 338.421 C 100.597 338.947, 103.696 338.008, 107.486 334.790 C 108.594 333.850, 110.394 332.428, 111.487 331.630 C 113.382 330.248, 113.305 330.148, 109.843 329.498 C 107.750 329.106, 105.346 329.280, 104.171 329.908 C 101.231 331.482, 100.888 331.295, 101.589 328.500 C 102.253 325.855, 101.996 325.478, 100.450 326.831 M 72.445 335.750 C 71.538 337.813, 70.301 340.625, 69.695 342 C 67.852 346.186, 67.795 346.570, 69.286 344.750 C 70.075 343.788, 71.635 343, 72.753 343 C 74.499 343, 76.112 341.164, 76.414 338.833 C 76.461 338.467, 76.838 337.829, 77.250 337.417 C 77.662 337.004, 78 335.997, 78 335.178 C 78 333.990, 77.567 334.074, 75.855 335.595 C 73.714 337.496, 73.710 337.494, 74.216 334.750 C 74.905 331.012, 74.404 331.295, 72.445 335.750 M 311.466 334.676 C 309.379 336.764, 310.129 337.282, 313.426 336.028 C 314.913 335.463, 317.424 335, 319.006 335 C 320.588 335, 322.133 334.593, 322.441 334.096 C 323.456 332.454, 313.144 332.999, 311.466 334.676 M 102.884 345.709 C 101.031 347.244, 98.387 349.474, 97.008 350.664 C 95.629 351.854, 93.375 353.728, 92 354.828 C 90.625 355.928, 89.827 357.156, 90.226 357.556 C 90.625 357.957, 91.525 357.811, 92.226 357.232 C 92.927 356.653, 95.173 355.866, 97.218 355.484 C 99.264 355.102, 101.743 354.049, 102.728 353.145 C 104.582 351.443, 107.540 344.206, 106.717 343.384 C 106.461 343.128, 104.736 344.174, 102.884 345.709 M 44 352.059 C 44 352.641, 44.450 352.840, 45 352.500 C 45.550 352.160, 46 351.684, 46 351.441 C 46 351.198, 45.550 351, 45 351 C 44.450 351, 44 351.477, 44 352.059 M 273.500 354.171 C 270.597 355.138, 260.799 357.175, 250.500 358.952 C 247.750 359.427, 242.575 360.340, 239 360.983 C 235.425 361.625, 229.582 362.455, 226.015 362.826 L 219.531 363.500 224.015 365.370 C 231.893 368.654, 232.429 368.830, 236.500 369.459 C 245.841 370.905, 253.764 371.191, 254.434 370.107 C 254.810 369.498, 255.991 369, 257.059 369 C 258.127 369, 259 368.550, 259 368 C 259 367.450, 259.811 367, 260.802 367 C 261.792 367, 264.605 365.087, 267.052 362.750 C 269.498 360.413, 273.075 357.284, 275 355.797 C 278.712 352.930, 278.363 352.551, 273.500 354.171 M 164.500 355 C 164.160 355.550, 164.584 356, 165.441 356 C 166.298 356, 167 355.550, 167 355 C 167 354.450, 166.577 354, 166.059 354 C 165.541 354, 164.840 354.450, 164.500 355 M 160.500 356 C 160.160 356.550, 160.332 357, 160.882 357 C 161.432 357, 162.160 356.550, 162.500 356 C 162.840 355.450, 162.668 355, 162.118 355 C 161.568 355, 160.840 355.450, 160.500 356 M 94.136 365.750 C 91.350 367.813, 86.793 371.075, 84.009 373 C 71.301 381.787, 63.762 388.015, 54.332 397.515 C 44.012 407.911, 40.832 412.618, 38.533 420.894 C 37.829 423.427, 36.033 428.650, 34.541 432.500 C 29.156 446.396, 25.067 462.700, 26.151 465.954 C 26.381 466.643, 27.777 464.988, 29.254 462.275 C 30.730 459.563, 36.329 452.203, 41.696 445.922 C 47.063 439.640, 52.206 433.600, 53.125 432.500 C 54.044 431.400, 57.462 427.350, 60.720 423.500 C 63.979 419.650, 68.156 413.800, 70.003 410.500 C 75.546 400.595, 85.111 386.950, 86.087 387.554 C 86.589 387.864, 87 389.216, 87 390.559 C 87 395.217, 88.620 392.941, 93.272 381.750 C 98.961 368.063, 101.021 362, 99.983 362 C 99.553 362, 96.921 363.688, 94.136 365.750 M 137.500 374.033 C 134.750 376.211, 130.925 379.415, 129 381.151 L 125.500 384.309 129.395 382.103 C 131.536 380.890, 133.894 380.129, 134.633 380.412 C 135.371 380.696, 135.928 380.607, 135.870 380.214 C 135.588 378.327, 136.120 377.641, 136.904 378.878 C 137.384 379.636, 138.299 379.934, 138.937 379.539 C 139.813 378.998, 139.803 378.467, 138.896 377.375 C 137.926 376.206, 138.242 375.357, 140.535 372.964 C 144.350 368.982, 143.496 369.283, 137.500 374.033 M 54.519 373.403 C 53.789 374.557, 52.203 377.975, 50.993 381 C 47.397 389.994, 46.831 391.280, 44.260 396.318 C 41.171 402.370, 41.825 403.303, 45.470 398.043 C 49.443 392.310, 70.183 373.016, 72.407 372.985 C 73.008 372.976, 72.825 372.537, 72 372.008 C 71.175 371.480, 67.203 371.106, 63.173 371.177 C 56.902 371.288, 55.654 371.609, 54.519 373.403 M 64 375.059 C 64 375.641, 64.450 375.840, 65 375.500 C 65.550 375.160, 66 374.684, 66 374.441 C 66 374.198, 65.550 374, 65 374 C 64.450 374, 64 374.477, 64 375.059 M 146.704 377.106 C 145.086 378.047, 145.366 378.591, 149.525 382.576 C 152.065 385.009, 154.638 387, 155.243 387 C 155.848 387, 157.053 387.625, 157.921 388.389 C 158.790 389.152, 161.075 390.080, 163 390.449 C 165.578 390.944, 166.105 390.846, 165 390.076 C 163.871 389.290, 164.778 389.027, 168.662 389.015 C 173.034 389.002, 173.772 388.732, 173.488 387.250 C 173.304 386.288, 173.119 385.163, 173.077 384.750 C 173.034 384.337, 171.687 384, 170.082 384 C 164.802 384, 161.815 381.718, 165.750 380.689 C 166.713 380.438, 165.588 380.180, 163.250 380.116 C 160.912 380.052, 159 379.550, 159 379 C 159 378.450, 157.677 378, 156.059 378 C 154.441 378, 152.840 377.550, 152.500 377 C 151.708 375.718, 149.004 375.768, 146.704 377.106 M 122.872 385.750 C 121.629 387.336, 121.664 387.371, 123.250 386.128 C 124.916 384.821, 125.445 384, 124.622 384 C 124.415 384, 123.627 384.788, 122.872 385.750 M 102.792 400.875 C 102.539 401.417, 93.405 409.240, 89.009 412.681 C 83.180 417.242, 81.002 419.329, 81.015 420.339 C 81.025 421.087, 81.292 421.140, 81.765 420.487 C 83.770 417.721, 93.209 414.257, 109.976 410.135 C 119.870 407.702, 120.706 407.318, 119.550 405.738 C 118.854 404.786, 116.758 403.719, 114.892 403.366 C 113.027 403.014, 110.825 402.160, 110 401.469 C 108.461 400.179, 103.314 399.755, 102.792 400.875 M 28.560 429.618 C 27.661 433.201, 28.705 433.907, 29.972 430.574 C 31.226 427.276, 31.236 427, 30.108 427 C 29.618 427, 28.921 428.178, 28.560 429.618 M 55.182 439.500 C 53.899 442.317, 55.060 442.797, 57.429 440.429 C 59.353 438.504, 59.455 437, 57.661 437 C 56.924 437, 55.808 438.125, 55.182 439.500" stroke="none" fill="black" fill-rule="evenodd"/>
</svg>